<svg xmlns="http://www.w3.org/2000/svg" version="1.1" xmlns:xlink="http://www.w3.org/1999/xlink" xmlns:svgjs="http://svgjs.dev/svgjs" width="1000" height="1000" viewBox="0 0 1000 1000"><rect width="1000" height="1000" fill="#0718c4"></rect><g transform="matrix(0.7,0,0,0.7,150.5473869993064,150.28340080971662)"><svg viewBox="0 0 247 247" data-background-color="#0718c4" preserveAspectRatio="xMidYMid meet" height="1000" width="1000" xmlns="http://www.w3.org/2000/svg" xmlns:xlink="http://www.w3.org/1999/xlink"><g id="tight-bounds" transform="matrix(1,0,0,1,-0.1931483938081442,-0.09999999999999432)"><svg viewBox="0 0 247.386284853052 247.2" height="247.2" width="247.386284853052"><g><svg viewBox="0 0 247.386284853052 247.2" height="247.2" width="247.386284853052"><g><svg viewBox="0 0 247.386284853052 247.2" height="247.2" width="247.386284853052"><g id="textblocktransform"><svg viewBox="0 0 247.386284853052 247.2" height="247.2" width="247.386284853052" id="textblock"><g><svg viewBox="0 0 247.386284853052 247.2" height="247.2" width="247.386284853052"><g transform="matrix(1,0,0,1,0,0)"><svg width="247.386284853052" viewBox="2.8600001335144043 -32.400001525878906 32.41999816894531 32.400001525878906" height="247.2" data-palette-color="#8dbdff"><g class="undefined-text-0" data-fill-palette-color="primary" id="text-0"><path d="M13.65 0L2.86 0 2.86-32.4 13.65-32.4 13.65 0ZM23.46-25.93L15.36-25.93 15.36-32.4 27.69-32.4 34.18-25.93 34.18-16.21 29.2-11.23 28.86-11.91 18.73-10.57 19.12-9.72 15.36-9.72 15.36-15.99 23.46-15.99 23.46-25.93ZM29.2-11.23L35.28 0 23.75 0 19.12-9.72 27.69-9.72 29.2-11.23Z" fill="#8dbdff" data-fill-palette-color="primary"></path></g></svg></g></svg></g></svg></g></svg></g></svg></g><defs></defs></svg><rect width="247.386284853052" height="247.2" fill="none" stroke="none" visibility="hidden"></rect></g></svg></g></svg>